<svg width="75" height="29" viewBox="0 0 75 29" fill="none" xmlns="http://www.w3.org/2000/svg">
<path d="M9.38968 0.917779C11.1203 0.917779 12.6695 1.32322 14.0371 2.13409C15.4168 2.94496 16.506 4.07655 17.3048 5.52886C18.1035 6.96906 18.5029 8.63922 18.5029 10.5393V18.1276C18.5029 20.1851 18.1035 21.9641 17.3048 23.4649C16.506 24.9535 15.3804 26.1032 13.9281 26.9141C12.4758 27.7129 10.7694 28.1122 8.80875 28.1122C7.53798 28.1122 6.32773 27.9247 5.17798 27.5495C4.04034 27.1622 2.98742 26.5268 2.01921 25.6433L5.54106 22.1215C5.97675 22.5572 6.47901 22.896 7.04783 23.1381C7.62875 23.3801 8.21573 23.5012 8.80875 23.5012C9.75275 23.5012 10.5697 23.2833 11.2595 22.8476C11.9615 22.3998 12.5 21.825 12.8752 21.123C13.2625 20.409 13.4561 19.6525 13.4561 18.8538V14.9689L14.2912 15.8765C13.553 16.639 12.6876 17.226 11.6952 17.6375C10.7028 18.0369 9.68014 18.2365 8.62721 18.2365C6.98127 18.2365 5.52896 17.8674 4.27029 17.1292C3.02373 16.3909 2.04342 15.3803 1.32937 14.0975C0.627419 12.8146 0.276444 11.3502 0.276444 9.70424C0.276444 8.05829 0.693983 6.57573 1.52906 5.25655C2.36414 3.92527 3.47152 2.87234 4.85121 2.09778C6.23091 1.31111 7.74373 0.917779 9.38968 0.917779ZM9.38968 5.63778C8.63932 5.63778 7.94947 5.81932 7.32014 6.18239C6.70291 6.54547 6.2067 7.03563 5.83152 7.65286C5.46844 8.27009 5.28691 8.95388 5.28691 9.70424C5.28691 10.4546 5.46844 11.1444 5.83152 11.7738C6.1946 12.391 6.68475 12.8872 7.30198 13.2624C7.91921 13.6255 8.60301 13.807 9.35337 13.807C10.1037 13.807 10.7875 13.6255 11.4048 13.2624C12.0341 12.8872 12.5303 12.391 12.8934 11.7738C13.2685 11.1444 13.4561 10.4546 13.4561 9.70424C13.4561 8.97809 13.2746 8.3064 12.9115 7.68916C12.5484 7.07193 12.0583 6.57573 11.4411 6.20055C10.8238 5.82537 10.14 5.63778 9.38968 5.63778ZM32.3387 28.1122C30.5717 28.1122 28.9984 27.7552 27.6187 27.0412C26.2511 26.315 25.174 25.3226 24.3873 24.0639C23.6127 22.7932 23.2255 21.3469 23.2255 19.7252C23.2255 18.3455 23.5341 17.0444 24.1513 15.8221C24.7806 14.5997 25.6823 13.6013 26.8562 12.8267L26.7473 14.3516C25.8638 13.4923 25.1679 12.5847 24.6596 11.6285C24.1634 10.6724 23.9153 9.59532 23.9153 8.39716C23.9153 6.88434 24.2723 5.56516 24.9864 4.43963C25.7125 3.31409 26.7049 2.4427 27.9636 1.82547C29.2344 1.19614 30.6927 0.881472 32.3387 0.881472C33.9846 0.881472 35.4369 1.19614 36.6956 1.82547C37.9664 2.4427 38.9588 3.31409 39.6728 4.43963C40.399 5.56516 40.7621 6.88434 40.7621 8.39716C40.7621 9.59532 40.5261 10.6724 40.0541 11.6285C39.5821 12.5725 38.862 13.4923 37.8938 14.3879V12.863C39.0435 13.5892 39.927 14.5695 40.5442 15.8039C41.1736 17.0384 41.4882 18.3455 41.4882 19.7252C41.4882 21.3469 41.0949 22.7932 40.3082 24.0639C39.5216 25.3226 38.4384 26.315 37.0587 27.0412C35.679 27.7552 34.1057 28.1122 32.3387 28.1122ZM32.3387 23.4649C33.5005 23.4649 34.4445 23.1502 35.1707 22.5209C35.8968 21.8915 36.2599 20.9596 36.2599 19.7252C36.2599 18.5028 35.8968 17.5709 35.1707 16.9295C34.4445 16.2759 33.5005 15.9492 32.3387 15.9492C31.1768 15.9492 30.2389 16.2759 29.5248 16.9295C28.8108 17.5709 28.4538 18.5028 28.4538 19.7252C28.4538 20.9596 28.8108 21.8915 29.5248 22.5209C30.2389 23.1502 31.1768 23.4649 32.3387 23.4649ZM32.3387 11.2655C33.2827 11.2655 34.0512 11.0355 34.6442 10.5756C35.2373 10.1036 35.5338 9.37747 35.5338 8.39716C35.5338 7.41686 35.2373 6.6907 34.6442 6.2187C34.0512 5.7346 33.2827 5.49255 32.3387 5.49255C31.3947 5.49255 30.6262 5.7346 30.0332 6.2187C29.4401 6.6907 29.1436 7.41686 29.1436 8.39716C29.1436 9.37747 29.4401 10.1036 30.0332 10.5756C30.6262 11.0355 31.3947 11.2655 32.3387 11.2655ZM50.2038 27.5676L46.9361 24.2999L69.8099 1.42609L73.0776 4.73009L50.2038 27.5676ZM67.6315 28.1122C66.4333 28.1122 65.338 27.8218 64.3456 27.2409C63.3653 26.6478 62.5787 25.8612 61.9856 24.8809C61.3926 23.8884 61.0961 22.7871 61.0961 21.5769C61.0961 20.3908 61.3986 19.3016 62.0038 18.3092C62.6089 17.3168 63.4077 16.524 64.4001 15.931C65.3925 15.338 66.4696 15.0415 67.6315 15.0415C68.8296 15.0415 69.9249 15.338 70.9173 15.931C71.9097 16.5119 72.6964 17.2986 73.2773 18.291C73.8703 19.2713 74.1669 20.3666 74.1669 21.5769C74.1669 22.7871 73.8703 23.8884 73.2773 24.8809C72.6964 25.8612 71.9097 26.6478 70.9173 27.2409C69.9249 27.8218 68.8296 28.1122 67.6315 28.1122ZM67.6315 23.9369C68.0551 23.9369 68.4423 23.8279 68.7933 23.6101C69.1564 23.3922 69.4469 23.1078 69.6647 22.7569C69.8825 22.3938 69.9915 22.0004 69.9915 21.5769C69.9915 21.1533 69.8825 20.766 69.6647 20.415C69.4469 20.0519 69.1564 19.7615 68.7933 19.5436C68.4423 19.3258 68.0551 19.2169 67.6315 19.2169C67.2079 19.2169 66.8145 19.3258 66.4515 19.5436C66.1005 19.7615 65.8161 20.0519 65.5982 20.415C65.3804 20.766 65.2715 21.1533 65.2715 21.5769C65.2715 22.0004 65.3804 22.3938 65.5982 22.7569C65.8161 23.1078 66.1005 23.3922 66.4515 23.6101C66.8145 23.8279 67.2079 23.9369 67.6315 23.9369ZM52.3822 13.9522C51.1841 13.9522 50.0888 13.6618 49.0964 13.0809C48.104 12.4878 47.3113 11.7012 46.7182 10.7209C46.1373 9.72845 45.8469 8.62711 45.8469 7.41686C45.8469 6.2308 46.1494 5.14157 46.7545 4.14916C47.3597 3.15675 48.1584 2.36403 49.1509 1.77101C50.1433 1.17798 51.2204 0.881472 52.3822 0.881472C53.5804 0.881472 54.6696 1.17798 55.6499 1.77101C56.6423 2.35193 57.4351 3.1386 58.0281 4.13101C58.6211 5.11132 58.9176 6.2066 58.9176 7.41686C58.9176 8.62711 58.6211 9.72845 58.0281 10.7209C57.4351 11.7012 56.6423 12.4878 55.6499 13.0809C54.6696 13.6618 53.5804 13.9522 52.3822 13.9522ZM52.3822 9.77686C52.8058 9.77686 53.1931 9.66793 53.5441 9.45009C53.9072 9.23224 54.1976 8.94783 54.4155 8.59686C54.6333 8.23378 54.7422 7.84045 54.7422 7.41686C54.7422 6.99327 54.6333 6.60598 54.4155 6.25501C54.1976 5.89193 53.9072 5.60147 53.5441 5.38363C53.1931 5.16578 52.8058 5.05686 52.3822 5.05686C51.9586 5.05686 51.5653 5.16578 51.2022 5.38363C50.8513 5.60147 50.5669 5.89193 50.349 6.25501C50.1312 6.60598 50.0222 6.99327 50.0222 7.41686C50.0222 7.84045 50.1312 8.23378 50.349 8.59686C50.5669 8.94783 50.8513 9.23224 51.2022 9.45009C51.5653 9.66793 51.9586 9.77686 52.3822 9.77686Z" fill="url(#paint0_linear_18_412)"/>
<defs>
<linearGradient id="paint0_linear_18_412" x1="0.303482" y1="3.56763" x2="66.9428" y2="37.2813" gradientUnits="userSpaceOnUse">
<stop offset="0.0385737" stop-color="#0179B4"/>
<stop offset="0.922753" stop-color="#88D8FF"/>
</linearGradient>
</defs>
</svg>
